<svg width="169" height="65" viewBox="0 0 169 65" fill="none" xmlns="http://www.w3.org/2000/svg">
<line x1="81.7457" y1="4.71724" x2="121.746" y2="63.0506" stroke="white"/>
<line x1="120.98" y1="62.9798" x2="165.98" y2="17.9798" stroke="white"/>
<line x1="81.4108" y1="4.50604" x2="166.411" y2="17.8394" stroke="white"/>
<circle cx="163" cy="18.3333" r="4.5" fill="#FF0000" stroke="white"/>
<circle cx="83" cy="5" r="4.5" fill="#12A65B" stroke="white"/>
<circle cx="121.333" cy="60" r="4.5" fill="#0645AD" stroke="white"/>
<path d="M6.392 18.93H0.595V20.154H0.765C1.071 20.154 1.32033 20.1937 1.513 20.273C1.70567 20.3523 1.802 20.5167 1.802 20.766V29.164C1.802 29.4133 1.70567 29.5777 1.513 29.657C1.32033 29.7363 1.071 29.776 0.765 29.776H0.595V31H10.523V26.835H8.976L8.789 28.909C8.77767 29.113 8.69833 29.266 8.551 29.368C8.415 29.47 8.20533 29.5437 7.922 29.589C7.63867 29.623 7.27033 29.64 6.817 29.64H5.032V20.766C5.032 20.5167 5.134 20.3523 5.338 20.273C5.542 20.1937 5.80833 20.154 6.137 20.154H6.392V18.93ZM17.9258 31.238C17.0078 31.238 16.1692 31.0963 15.4098 30.813C14.6505 30.5183 13.9875 30.099 13.4208 29.555C12.8655 29.011 12.4348 28.3537 12.1288 27.583C11.8228 26.801 11.6698 25.9283 11.6698 24.965C11.6698 24.0017 11.8228 23.1347 12.1288 22.364C12.4348 21.5933 12.8655 20.936 13.4208 20.392C13.9875 19.8367 14.6505 19.4173 15.4098 19.134C16.1692 18.8393 17.0078 18.692 17.9258 18.692C18.8438 18.692 19.6825 18.8393 20.4418 19.134C21.2125 19.4173 21.8755 19.8367 22.4308 20.392C22.9862 20.936 23.4168 21.5933 23.7228 22.364C24.0288 23.1347 24.1818 24.0017 24.1818 24.965C24.1818 25.9283 24.0288 26.801 23.7228 27.583C23.4168 28.3537 22.9862 29.011 22.4308 29.555C21.8755 30.099 21.2125 30.5183 20.4418 30.813C19.6825 31.0963 18.8438 31.238 17.9258 31.238ZM17.9258 29.793C18.3678 29.793 18.7645 29.691 19.1158 29.487C19.4785 29.283 19.7845 28.9827 20.0338 28.586C20.2832 28.178 20.4758 27.6737 20.6118 27.073C20.7478 26.4723 20.8158 25.7697 20.8158 24.965C20.8158 24.1603 20.7478 23.4577 20.6118 22.857C20.4758 22.2563 20.2832 21.7577 20.0338 21.361C19.7845 20.953 19.4785 20.647 19.1158 20.443C18.7645 20.239 18.3678 20.137 17.9258 20.137C17.4838 20.137 17.0815 20.239 16.7188 20.443C16.3675 20.647 16.0672 20.953 15.8178 21.361C15.5685 21.7577 15.3758 22.2563 15.2398 22.857C15.1038 23.4577 15.0358 24.1603 15.0358 24.965C15.0358 25.7697 15.1038 26.4723 15.2398 27.073C15.3758 27.6737 15.5685 28.178 15.8178 28.586C16.0672 28.9827 16.3675 29.283 16.7188 29.487C17.0815 29.691 17.4838 29.793 17.9258 29.793ZM31.7885 20.154C31.3239 20.154 30.9102 20.2617 30.5475 20.477C30.1962 20.681 29.8959 20.9927 29.6465 21.412C29.3972 21.82 29.2045 22.3243 29.0685 22.925C28.9439 23.5143 28.8815 24.1943 28.8815 24.965C28.8815 25.7583 28.9495 26.4553 29.0855 27.056C29.2215 27.6567 29.4142 28.161 29.6635 28.569C29.9242 28.9657 30.2472 29.266 30.6325 29.47C31.0292 29.674 31.4825 29.776 31.9925 29.776C32.5932 29.776 33.1032 29.64 33.5225 29.368C33.9532 29.096 34.3102 28.7163 34.5935 28.229C34.8769 27.7417 35.0922 27.1863 35.2395 26.563L36.5145 27.107C36.3219 27.9343 36.0159 28.6597 35.5965 29.283C35.1885 29.895 34.6502 30.3767 33.9815 30.728C33.3242 31.068 32.5309 31.238 31.6015 31.238C30.6949 31.238 29.8732 31.0963 29.1365 30.813C28.3999 30.5183 27.7595 30.099 27.2155 29.555C26.6715 28.9997 26.2522 28.3367 25.9575 27.566C25.6629 26.7953 25.5155 25.9283 25.5155 24.965C25.5155 23.9903 25.6685 23.1177 25.9745 22.347C26.2805 21.5763 26.6999 20.919 27.2325 20.375C27.7765 19.831 28.3999 19.4173 29.1025 19.134C29.8165 18.8393 30.5759 18.692 31.3805 18.692C32.1965 18.692 32.8709 18.8393 33.4035 19.134C33.9362 19.4287 34.3612 19.8367 34.6785 20.358C35.0072 20.868 35.2565 21.4687 35.4265 22.16L34.6105 21.837L34.9335 18.879H36.3445V22.857H34.6955C34.5255 22.313 34.3102 21.837 34.0495 21.429C33.8002 21.021 33.4885 20.7093 33.1145 20.494C32.7519 20.2673 32.3099 20.154 31.7885 20.154ZM39.9135 25.849H44.5885L44.6395 27.141H39.8285L39.9135 25.849ZM41.9195 19.916L42.4125 20.562L39.5735 29.453C39.5735 29.5097 39.6245 29.5663 39.7265 29.623C39.8285 29.6797 39.9588 29.7193 40.1175 29.742C40.2761 29.7647 40.4575 29.776 40.6615 29.776H40.8655V31H37.1595V29.776H37.2445C37.5051 29.776 37.7091 29.725 37.8565 29.623C38.0151 29.5097 38.1455 29.2887 38.2475 28.96L41.5115 18.896H44.8095L48.1585 29.147C48.2378 29.4077 48.3568 29.5777 48.5155 29.657C48.6855 29.7363 48.8951 29.776 49.1445 29.776H49.2125V31H43.6535V29.776H43.8915C44.0841 29.776 44.2655 29.7703 44.4355 29.759C44.6055 29.7477 44.7415 29.7307 44.8435 29.708C44.9455 29.674 44.9965 29.64 44.9965 29.606L41.9195 19.916ZM55.8315 18.93H50.0345V20.154H50.2045C50.5105 20.154 50.7598 20.1937 50.9525 20.273C51.1451 20.3523 51.2415 20.5167 51.2415 20.766V29.164C51.2415 29.4133 51.1451 29.5777 50.9525 29.657C50.7598 29.7363 50.5105 29.776 50.2045 29.776H50.0345V31H59.9625V26.835H58.4155L58.2285 28.909C58.2171 29.113 58.1378 29.266 57.9905 29.368C57.8545 29.47 57.6448 29.5437 57.3615 29.589C57.0781 29.623 56.7098 29.64 56.2565 29.64H54.4715V20.766C54.4715 20.5167 54.5735 20.3523 54.7775 20.273C54.9815 20.1937 55.2478 20.154 55.5765 20.154H55.8315V18.93ZM65.5071 31V29.776H65.6941C65.8868 29.776 66.0568 29.759 66.2041 29.725C66.3628 29.691 66.4874 29.6287 66.5781 29.538C66.6688 29.4473 66.7141 29.3227 66.7141 29.164V20.766C66.7141 20.596 66.6688 20.4713 66.5781 20.392C66.4874 20.3013 66.3628 20.239 66.2041 20.205C66.0568 20.171 65.8811 20.154 65.6771 20.154H65.5071V18.93H71.1511L73.6331 27.855L73.0381 26.903L75.4691 18.93H80.9941V20.154H80.8241C80.6314 20.154 80.4558 20.171 80.2971 20.205C80.1384 20.239 80.0138 20.3013 79.9231 20.392C79.8324 20.4713 79.7871 20.596 79.7871 20.766V29.164C79.7871 29.3227 79.8324 29.4473 79.9231 29.538C80.0138 29.6287 80.1384 29.691 80.2971 29.725C80.4558 29.759 80.6314 29.776 80.8241 29.776H80.9941V31H75.4351V29.776H75.5711C75.7298 29.776 75.8828 29.7703 76.0301 29.759C76.1774 29.7477 76.3021 29.7307 76.4041 29.708C76.5174 29.674 76.5741 29.64 76.5741 29.606V19.321H76.7781L73.2081 31.051H71.5421L67.9551 19.321L68.1761 19.287V29.623C68.1761 29.6457 68.2271 29.674 68.3291 29.708C68.4424 29.7307 68.5784 29.7477 68.7371 29.759C68.8958 29.7703 69.0374 29.776 69.1621 29.776H69.2811V31H65.5071ZM92.1877 27.141V31H82.1917V29.776H82.3617C82.6677 29.776 82.917 29.7363 83.1097 29.657C83.3023 29.5777 83.3987 29.4133 83.3987 29.164V20.766C83.3987 20.5167 83.3023 20.3523 83.1097 20.273C82.917 20.1937 82.6677 20.154 82.3617 20.154H82.1917V18.93H91.7627V22.364H90.2837L90.1477 21.021C90.125 20.817 90.0457 20.664 89.9097 20.562C89.7737 20.4487 89.5753 20.375 89.3147 20.341C89.0653 20.307 88.7537 20.29 88.3797 20.29H86.6117V29.64H88.5157C88.8557 29.64 89.1447 29.6343 89.3827 29.623C89.632 29.6003 89.8303 29.5607 89.9777 29.504C90.1363 29.4473 90.2553 29.3737 90.3347 29.283C90.414 29.181 90.465 29.0563 90.4877 28.909L90.6747 27.141H92.1877ZM86.1867 24.217C86.64 24.183 87.0877 24.1547 87.5297 24.132C87.983 24.1093 88.4307 24.0867 88.8727 24.064C89.326 24.03 89.7737 24.0017 90.2157 23.979V25.645C89.7737 25.611 89.326 25.5827 88.8727 25.56C88.4307 25.5373 87.983 25.5147 87.5297 25.492C87.0877 25.458 86.64 25.4297 86.1867 25.407V24.217ZM97.3769 29.164V20.29H96.8839C96.4419 20.29 96.0849 20.3127 95.8129 20.358C95.5409 20.392 95.3426 20.4657 95.2179 20.579C95.0933 20.6923 95.0196 20.851 94.9969 21.055L94.8439 23.061H93.3139V18.93H104.67V23.061H103.14L102.987 21.055C102.976 20.851 102.902 20.6923 102.766 20.579C102.641 20.4657 102.443 20.392 102.171 20.358C101.899 20.3127 101.542 20.29 101.1 20.29H100.607V29.164C100.607 29.4133 100.703 29.5777 100.896 29.657C101.1 29.7363 101.349 29.776 101.644 29.776H101.916V31H96.0679V29.776H96.3399C96.6346 29.776 96.8783 29.7363 97.0709 29.657C97.2749 29.5777 97.3769 29.4133 97.3769 29.164ZM111.51 25.56L113.975 31H117.749V29.776H117.613C117.466 29.776 117.33 29.7647 117.205 29.742C117.092 29.708 116.984 29.6457 116.882 29.555C116.78 29.4643 116.684 29.334 116.593 29.164L114.502 25.135L111.51 25.56ZM110.252 29.606V20.256H111.629C112.037 20.256 112.377 20.341 112.649 20.511C112.921 20.681 113.125 20.9247 113.261 21.242C113.397 21.5593 113.465 21.9447 113.465 22.398C113.465 22.8853 113.397 23.3103 113.261 23.673C113.125 24.0243 112.916 24.2963 112.632 24.489C112.349 24.6817 111.986 24.778 111.544 24.778H109.878V26.087H112.037C112.128 26.0643 112.207 26.0473 112.275 26.036C112.355 26.0133 112.434 25.9907 112.513 25.968C112.604 25.9453 112.683 25.917 112.751 25.883C113.624 25.8037 114.361 25.611 114.961 25.305C115.562 24.999 116.015 24.5967 116.321 24.098C116.627 23.588 116.78 23.0043 116.78 22.347C116.78 21.633 116.599 21.021 116.236 20.511C115.885 20.001 115.364 19.61 114.672 19.338C113.992 19.066 113.159 18.93 112.173 18.93H105.832V20.154H106.002C106.308 20.154 106.558 20.1937 106.75 20.273C106.943 20.3523 107.039 20.5167 107.039 20.766V29.164C107.039 29.4133 106.943 29.5777 106.75 29.657C106.558 29.7363 106.308 29.776 106.002 29.776H105.832V31H111.425V29.776H111.221C111.108 29.776 110.989 29.776 110.864 29.776C110.751 29.7647 110.649 29.7533 110.558 29.742C110.468 29.7193 110.394 29.7023 110.337 29.691C110.281 29.6683 110.252 29.64 110.252 29.606ZM119.973 29.164V20.766C119.973 20.5167 119.876 20.3523 119.684 20.273C119.491 20.1937 119.247 20.154 118.953 20.154H118.732V18.93H124.444V20.154H124.223C123.928 20.154 123.684 20.1937 123.492 20.273C123.299 20.3523 123.203 20.5167 123.203 20.766V29.164C123.203 29.4133 123.299 29.5777 123.492 29.657C123.684 29.7363 123.928 29.776 124.223 29.776H124.444V31H118.732V29.776H118.953C119.247 29.776 119.491 29.7363 119.684 29.657C119.876 29.5777 119.973 29.4133 119.973 29.164ZM131.979 20.154C131.514 20.154 131.101 20.2617 130.738 20.477C130.387 20.681 130.086 20.9927 129.837 21.412C129.588 21.82 129.395 22.3243 129.259 22.925C129.134 23.5143 129.072 24.1943 129.072 24.965C129.072 25.7583 129.14 26.4553 129.276 27.056C129.412 27.6567 129.605 28.161 129.854 28.569C130.115 28.9657 130.438 29.266 130.823 29.47C131.22 29.674 131.673 29.776 132.183 29.776C132.784 29.776 133.294 29.64 133.713 29.368C134.144 29.096 134.501 28.7163 134.784 28.229C135.067 27.7417 135.283 27.1863 135.43 26.563L136.705 27.107C136.512 27.9343 136.206 28.6597 135.787 29.283C135.379 29.895 134.841 30.3767 134.172 30.728C133.515 31.068 132.721 31.238 131.792 31.238C130.885 31.238 130.064 31.0963 129.327 30.813C128.59 30.5183 127.95 30.099 127.406 29.555C126.862 28.9997 126.443 28.3367 126.148 27.566C125.853 26.7953 125.706 25.9283 125.706 24.965C125.706 23.9903 125.859 23.1177 126.165 22.347C126.471 21.5763 126.89 20.919 127.423 20.375C127.967 19.831 128.59 19.4173 129.293 19.134C130.007 18.8393 130.766 18.692 131.571 18.692C132.387 18.692 133.061 18.8393 133.594 19.134C134.127 19.4287 134.552 19.8367 134.869 20.358C135.198 20.868 135.447 21.4687 135.617 22.16L134.801 21.837L135.124 18.879H136.535V22.857H134.886C134.716 22.313 134.501 21.837 134.24 21.429C133.991 21.021 133.679 20.7093 133.305 20.494C132.942 20.2673 132.5 20.154 131.979 20.154ZM4.42 42.44L4.19 42.32L5.89 36.93C5.89 36.8833 5.86333 36.8433 5.81 36.81C5.75667 36.7767 5.67667 36.7533 5.57 36.74C5.47 36.72 5.34667 36.71 5.2 36.71H5.1V35.9H7.41V36.71H7.35C7.18333 36.71 7.04333 36.75 6.93 36.83C6.82333 36.91 6.73 37.07 6.65 37.31L4.83 43.04H2.81L0.97 37.28C0.896667 37.0467 0.8 36.8933 0.68 36.82C0.566667 36.7467 0.426667 36.71 0.26 36.71H0.2V35.9H3.47V36.71H3.36C3.20667 36.71 3.08 36.7133 2.98 36.72C2.88 36.7267 2.80333 36.7367 2.75 36.75C2.69667 36.7633 2.67 36.7833 2.67 36.81L4.42 42.44ZM8.84742 41.83V37.07C8.84742 36.9233 8.78742 36.8267 8.66742 36.78C8.55409 36.7333 8.40742 36.71 8.22742 36.71H8.03742V35.9H11.4674V36.71H11.2874C11.1074 36.71 10.9574 36.7333 10.8374 36.78C10.7174 36.8267 10.6574 36.9233 10.6574 37.07V41.83C10.6574 41.9767 10.7174 42.0733 10.8374 42.12C10.9574 42.1667 11.1074 42.19 11.2874 42.19H11.4674V43H8.03742V42.19H8.22742C8.40742 42.19 8.55409 42.1667 8.66742 42.12C8.78742 42.0733 8.84742 41.9767 8.84742 41.83ZM15.5145 42.42C15.8212 42.42 16.0679 42.39 16.2545 42.33C16.4412 42.2633 16.5745 42.16 16.6545 42.02C16.7412 41.88 16.7845 41.6867 16.7845 41.44C16.7845 41.2333 16.7379 41.0633 16.6445 40.93C16.5512 40.79 16.4179 40.6767 16.2445 40.59C16.0712 40.4967 15.8612 40.4167 15.6145 40.35C15.3745 40.2833 15.1045 40.2133 14.8045 40.14C14.4912 40.0667 14.1979 39.98 13.9245 39.88C13.6512 39.78 13.4112 39.65 13.2045 39.49C12.9979 39.3233 12.8345 39.1067 12.7145 38.84C12.6012 38.5733 12.5445 38.24 12.5445 37.84C12.5445 37.3533 12.6412 36.95 12.8345 36.63C13.0345 36.31 13.3212 36.0733 13.6945 35.92C14.0679 35.76 14.5245 35.68 15.0645 35.68C15.5312 35.68 15.9112 35.75 16.2045 35.89C16.5045 36.0233 16.7345 36.2333 16.8945 36.52C17.0612 36.8067 17.1779 37.1733 17.2445 37.62L16.9545 37.11L17.1345 35.82H17.9245V37.95H17.0145C16.9412 37.63 16.8179 37.36 16.6445 37.14C16.4779 36.92 16.2712 36.7533 16.0245 36.64C15.7845 36.5267 15.5045 36.47 15.1845 36.47C14.9045 36.47 14.6812 36.5033 14.5145 36.57C14.3479 36.6367 14.2279 36.7367 14.1545 36.87C14.0879 37.0033 14.0545 37.17 14.0545 37.37C14.0545 37.57 14.0945 37.7333 14.1745 37.86C14.2545 37.9867 14.3712 38.09 14.5245 38.17C14.6845 38.2433 14.8779 38.31 15.1045 38.37C15.3312 38.4233 15.5879 38.4833 15.8745 38.55C16.1945 38.6167 16.5012 38.7 16.7945 38.8C17.0945 38.8933 17.3579 39.0233 17.5845 39.19C17.8179 39.3567 18.0012 39.57 18.1345 39.83C18.2679 40.09 18.3345 40.4233 18.3345 40.83C18.3345 41.3767 18.2279 41.8267 18.0145 42.18C17.8079 42.5333 17.5045 42.7967 17.1045 42.97C16.7045 43.1367 16.2179 43.22 15.6445 43.22C15.1579 43.22 14.7345 43.1533 14.3745 43.02C14.0145 42.8933 13.7279 42.6733 13.5145 42.36C13.3079 42.04 13.1712 41.6033 13.1045 41.05L13.3745 41.53L13.1945 43.03H12.3845V40.66H13.3645C13.4712 41.08 13.6245 41.42 13.8245 41.68C14.0312 41.94 14.2745 42.13 14.5545 42.25C14.8412 42.3633 15.1612 42.42 15.5145 42.42ZM21.5333 40.36C21.5333 40.7133 21.5666 41.0133 21.6333 41.26C21.7066 41.5 21.8066 41.6933 21.9333 41.84C22.0666 41.9867 22.2266 42.0933 22.4133 42.16C22.5999 42.2267 22.8166 42.26 23.0633 42.26C23.2966 42.26 23.5066 42.2267 23.6933 42.16C23.8799 42.0867 24.0399 41.9767 24.1733 41.83C24.3133 41.6767 24.4199 41.48 24.4933 41.24C24.5666 41 24.6033 40.7067 24.6033 40.36V36.89C24.6033 36.8567 24.5833 36.83 24.5433 36.81C24.5033 36.7833 24.4499 36.7633 24.3833 36.75C24.3233 36.7367 24.2533 36.7267 24.1733 36.72C24.0933 36.7133 24.0133 36.71 23.9333 36.71H23.8233V35.9H26.1833V36.71H26.0733C25.9599 36.71 25.8533 36.72 25.7533 36.74C25.6599 36.76 25.5833 36.8 25.5233 36.86C25.4699 36.9133 25.4433 36.9933 25.4433 37.1V40.36C25.4433 40.8667 25.3733 41.3033 25.2333 41.67C25.0999 42.03 24.9066 42.3267 24.6533 42.56C24.3999 42.7867 24.1033 42.9533 23.7633 43.06C23.4233 43.1667 23.0599 43.22 22.6733 43.22C22.2333 43.22 21.8333 43.1633 21.4733 43.05C21.1133 42.9433 20.7999 42.7767 20.5333 42.55C20.2733 42.3167 20.0733 42.02 19.9333 41.66C19.7999 41.3 19.7333 40.8667 19.7333 40.36V37.07C19.7333 36.9233 19.6733 36.8267 19.5533 36.78C19.4333 36.7333 19.2833 36.71 19.1033 36.71H18.9933V35.9H22.2833V36.7H22.1733C22.0999 36.7 22.0266 36.7033 21.9533 36.71C21.8799 36.7167 21.8099 36.7267 21.7433 36.74C21.6833 36.7467 21.6333 36.7567 21.5933 36.77C21.5533 36.7767 21.5333 36.79 21.5333 36.81V40.36ZM28.0828 40.06H30.8228L30.9228 40.8H27.9828L28.0828 40.06ZM29.3628 36.43L29.5528 36.53L27.8728 41.97C27.8728 42.01 27.8995 42.05 27.9528 42.09C28.0061 42.1233 28.0828 42.15 28.1828 42.17C28.2895 42.1833 28.4195 42.19 28.5728 42.19H28.6628V43H26.3528V42.19H26.4128C26.5728 42.19 26.7095 42.15 26.8228 42.07C26.9428 41.99 27.0395 41.83 27.1128 41.59L28.9128 35.83H30.9628L32.7828 41.62C32.8561 41.8467 32.9461 42 33.0528 42.08C33.1661 42.1533 33.3095 42.19 33.4828 42.19H33.5328V43H30.2828V42.19H30.3828C30.5361 42.19 30.6628 42.1867 30.7628 42.18C30.8695 42.1733 30.9461 42.1633 30.9928 42.15C31.0461 42.13 31.0728 42.11 31.0728 42.09L29.3628 36.43ZM37.6198 35.9H34.1898V36.71H34.2998C34.4798 36.71 34.6298 36.7333 34.7498 36.78C34.8698 36.8267 34.9298 36.9233 34.9298 37.07V41.83C34.9298 41.9767 34.8698 42.0733 34.7498 42.12C34.6298 42.1667 34.4798 42.19 34.2998 42.19H34.1898V43H40.2098V40.42H39.2998L39.1498 41.74C39.1364 41.86 39.0898 41.9533 39.0098 42.02C38.9298 42.0867 38.8064 42.1333 38.6398 42.16C38.4731 42.18 38.2531 42.19 37.9798 42.19H36.7398V37.07C36.7398 36.9233 36.8031 36.8267 36.9298 36.78C37.0564 36.7333 37.2264 36.71 37.4398 36.71H37.6198V35.9ZM41.865 41.83V37.07C41.865 36.9233 41.805 36.8267 41.685 36.78C41.5717 36.7333 41.425 36.71 41.245 36.71H41.055V35.9H44.485V36.71H44.305C44.125 36.71 43.975 36.7333 43.855 36.78C43.735 36.8267 43.675 36.9233 43.675 37.07V41.83C43.675 41.9767 43.735 42.0733 43.855 42.12C43.975 42.1667 44.125 42.19 44.305 42.19H44.485V43H41.055V42.19H41.245C41.425 42.19 41.5717 42.1667 41.685 42.12C41.805 42.0733 41.865 41.9767 41.865 41.83ZM47.5621 36.72C47.3954 36.72 47.2454 36.7267 47.1121 36.74C46.9854 36.7467 46.8788 36.7667 46.7921 36.8C46.7054 36.8333 46.6388 36.88 46.5921 36.94C46.5454 36.9933 46.5154 37.0667 46.5021 37.16L46.4021 38.16H45.5021V35.9H51.1421V37.1L46.7121 42.64L46.4321 42.18H49.0721C49.3388 42.18 49.5554 42.17 49.7221 42.15C49.8888 42.1233 50.0121 42.08 50.0921 42.02C50.1721 41.9533 50.2188 41.86 50.2321 41.74L50.3921 40.46H51.3021V43H45.3421V41.76L49.6421 36.39L49.9021 36.72H47.5621ZM58.3373 40.74V43H52.2073V42.19H52.3173C52.4973 42.19 52.6473 42.1667 52.7673 42.12C52.8873 42.0733 52.9473 41.9767 52.9473 41.83V37.07C52.9473 36.9233 52.8873 36.8267 52.7673 36.78C52.6473 36.7333 52.4973 36.71 52.3173 36.71H52.2073V35.9H58.1473V37.91H57.2473L57.1473 37.16C57.134 37.04 57.084 36.95 56.9973 36.89C56.9173 36.8233 56.8007 36.7767 56.6473 36.75C56.5007 36.7233 56.3173 36.71 56.0973 36.71H54.7573V42.19H56.1073C56.3073 42.19 56.4773 42.1833 56.6173 42.17C56.7573 42.1567 56.874 42.1333 56.9673 42.1C57.0607 42.0667 57.1307 42.02 57.1773 41.96C57.224 41.9 57.254 41.8267 57.2673 41.74L57.4273 40.74H58.3373ZM54.5773 38.99C54.8707 38.9633 55.164 38.94 55.4573 38.92C55.7507 38.9 56.044 38.88 56.3373 38.86C56.6307 38.84 56.924 38.82 57.2173 38.8V39.9C56.924 39.88 56.6307 39.86 56.3373 39.84C56.0507 39.82 55.7573 39.8 55.4573 39.78C55.164 39.7533 54.8707 39.7333 54.5773 39.72V38.99ZM62.7767 39.8L64.3367 43H66.5667V42.19H66.4767C66.3634 42.19 66.2567 42.1767 66.1567 42.15C66.0634 42.1233 65.9734 42.07 65.8867 41.99C65.8067 41.91 65.7201 41.7933 65.6267 41.64L64.3767 39.33L62.7767 39.8ZM61.8667 42.09V36.69H63.0067C63.2467 36.69 63.4434 36.7367 63.5967 36.83C63.7501 36.9167 63.8601 37.0533 63.9267 37.24C64.0001 37.4267 64.0367 37.6567 64.0367 37.93C64.0367 38.2167 63.9967 38.4667 63.9167 38.68C63.8434 38.8933 63.7267 39.0567 63.5667 39.17C63.4067 39.2833 63.2001 39.34 62.9467 39.34H61.5967V40.11H63.4867C63.5267 40.0833 63.5567 40.0567 63.5767 40.03C63.6034 40.0033 63.6301 39.9767 63.6567 39.95C63.6901 39.9167 63.7301 39.8767 63.7767 39.83C64.2234 39.7567 64.6034 39.6333 64.9167 39.46C65.2367 39.28 65.4801 39.0533 65.6467 38.78C65.8201 38.5067 65.9067 38.1867 65.9067 37.82C65.9067 37.3933 65.8034 37.0367 65.5967 36.75C65.3967 36.4633 65.1034 36.25 64.7167 36.11C64.3301 35.97 63.8567 35.9 63.2967 35.9H59.3167V36.71H59.4267C59.6067 36.71 59.7567 36.7333 59.8767 36.78C59.9967 36.8267 60.0567 36.9233 60.0567 37.07V41.83C60.0567 41.9767 59.9967 42.0733 59.8767 42.12C59.7567 42.1667 59.6067 42.19 59.4267 42.19H59.3167V43H62.6767V42.19H62.5267C62.4401 42.19 62.3567 42.19 62.2767 42.19C62.1967 42.1833 62.1234 42.1767 62.0567 42.17C61.9967 42.1567 61.9501 42.1467 61.9167 42.14C61.8834 42.1267 61.8667 42.11 61.8667 42.09Z" fill="#FFEC42"/>
</svg>
